<svg version="1" xmlns="http://www.w3.org/2000/svg" width="933.333" height="933.333" viewBox="0 0 700.000000 700.000000"><path d="M321.5 1.1C247 7.5 177.8 36.4 122 84.6 66.9 132.1 28.2 194.7 10.6 264.5 3.3 293.6.5 317.4.5 350.5c.1 40.4 5 72.2 17.1 109C43 536.7 96 604 165.2 647.1c44.7 27.8 92.4 44.3 148.3 51.1 13 1.6 60 1.6 73 0 45.1-5.5 81.8-16.3 119.5-35.1 72.9-36.4 131.2-97.3 163.9-171.4 14.4-32.5 23.8-67.4 28.3-105.2 1.6-13.9 1.6-59.5 0-73-6.1-49.7-19.8-93.2-41.8-132.7-53.8-96.4-148.9-162-256.9-177.2-24.9-3.5-54.6-4.5-78-2.5zm-72.1 136.8c3.4 1.6 7.7 4.7 9.8 6.8 2.7 2.9 62.6 96.5 86 134.5l3 4.8-19.9 31.4c-10.9 17.3-20.1 31.2-20.5 30.8-3-3-106.4-168.7-107.5-172.1-4.9-16.4 5.5-33.5 23.5-38.7 7.5-2.2 18.3-1.1 25.6 2.5zm232-.6c14.9 6.8 22.7 22.6 18.3 36.7-1.1 3.7-103.5 167.7-107.1 171.7-.8.9-6.1-6.8-20.9-30.3L351.8 284l11.8-18.8c49.3-78.3 72.9-115.3 75.9-118.9 4.1-4.9 10.8-9.1 17.4-11 6.8-1.9 17.9-1 24.5 2zM370.3 381.5c-10.9 17.3-20 31.4-20.3 31.4-.3 0-9.4-14.1-20.2-31.4L310 350.1l16.7-26.3c9.1-14.5 18.1-28.7 20-31.6l3.4-5.4 20 31.6L390 350l-19.7 31.5zm-41.9 3.6c16.1 25.4 19.4 31.3 18.6 32.9-.5 1-19.7 31.4-42.5 67.6-45.3 71.9-47 74.2-58.2 78.4-8.2 3.1-20.4 2.6-28.4-1.2-6.6-3-12.8-8.9-16.1-15-3.4-6.4-3.3-19.4.2-26 3.9-7.3 105.4-167.8 106.2-167.8.3 0 9.4 14 20.2 31.1zm117.2 53.2c29.3 46.3 53.7 86 54.4 88.1 2 6.2.8 16.3-2.6 22.6-7.7 14.1-27.7 21-43.8 14.9-10.9-4-12.1-5.6-57.9-78.2-23.3-37-42.7-67.7-43.1-68.4-.6-1.1 37.9-63.3 39.2-63.3.4 0 24.6 37.9 53.8 84.3z"/></svg>