<svg xmlns="http://www.w3.org/2000/svg" viewBox="0 0 432 432"><defs><style>.cls-1{fill:#407bff;}.cls-2{fill:#fcfcfc;}</style></defs><title>Asset 1</title><g id="Layer_2" data-name="Layer 2"><g id="Layer_1-2" data-name="Layer 1"><g id="Layer_1-2-2" data-name="Layer 1-2"><circle class="cls-1" cx="216" cy="216" r="216"/><path class="cls-2" d="M287.93,350.46a23,23,0,0,1-19.44-10.2L124.67,112.49c-6.16-9.78-2.48-22.27,8.21-27.9a24,24,0,0,1,11.23-2.73,22.9,22.9,0,0,1,19.43,10.2L307.36,319.82c6.19,9.75,2.56,22.23-8.1,27.88A23.9,23.9,0,0,1,287.93,350.46Z"/><path class="cls-2" d="M144.11,350.46c-12.33.07-22.38-9-22.45-20.28a19.18,19.18,0,0,1,3-10.36L268.49,92.06a22.92,22.92,0,0,1,19.44-10.2c12.35,0,22.38,9.12,22.4,20.42a19,19,0,0,1-3,10.21L163.54,340.26A23,23,0,0,1,144.11,350.46Z"/><path class="cls-1" d="M287.93,82.75h0c11.81,0,21.35,8.8,21.32,19.6a18.37,18.37,0,0,1-2.86,9.7L162.57,339.81A22,22,0,0,1,144,349.57c-11.81,0-21.35-8.81-21.32-19.6a18.26,18.26,0,0,1,2.86-9.7L269.35,92.5a22,22,0,0,1,18.58-9.75m0-1.78a23.8,23.8,0,0,0-20.25,10.66L123.85,319.4c-6.23,10.3-2.15,23.28,9.12,29,11,5.55,24.8,2.17,31.27-7.66L308.06,113c6.46-10.18,2.67-23.23-8.47-29.14h0A24.9,24.9,0,0,0,287.93,81Z"/><path class="cls-1" d="M144.11,82.75h0a22,22,0,0,1,18.58,9.75L306.51,320.27c5.89,9.35,2.37,21.3-7.86,26.69a22.89,22.89,0,0,1-10.6,2.61,22,22,0,0,1-18.58-9.76L125.64,112.05c-5.89-9.36-2.37-21.31,7.86-26.69a22.93,22.93,0,0,1,10.61-2.61m0-1.78a24.87,24.87,0,0,0-11.66,2.84h0c-11.16,5.89-15,18.93-8.54,29.13L267.74,340.7c6.64,10.09,21,13.35,32,7.27,10.75-5.92,14.45-18.55,8.37-28.59L164.3,91.61A23.81,23.81,0,0,0,144.05,81Z"/></g></g></g></svg>