<svg xmlns="http://www.w3.org/2000/svg" viewBox="0 0 194.43 35.7"><defs><style>.cls-1{fill:#407bff;}.cls-2{fill:#fff;}</style></defs><title>expensus-blue</title><g id="Layer_2" data-name="Layer 2"><g id="Layer_1-2" data-name="Layer 1"><g id="Layer_1-2-2" data-name="Layer 1-2"><g id="Layer_1-2-2-2" data-name="Layer 1-2-2"><g id="Layer_1-2-2-2-2" data-name="Layer 1-2-2-2"><path class="cls-1" d="M19.17,30.92a2.66,2.66,0,0,1-2.23-1.17L.44,3.62A2.23,2.23,0,0,1,1.14.55,2,2,0,0,1,1.39.41,2.84,2.84,0,0,1,2.67.1,2.62,2.62,0,0,1,4.9,1.28L21.4,27.4a2.24,2.24,0,0,1-.71,3.09l-.22.11A2.81,2.81,0,0,1,19.17,30.92Z"/><path class="cls-1" d="M2.67,30.92A2.45,2.45,0,0,1,.1,28.59,2.11,2.11,0,0,1,.44,27.4L16.94,1.28A2.64,2.64,0,0,1,19.17.1a2.48,2.48,0,0,1,2.56,2.35,2.2,2.2,0,0,1-.33,1.17L4.9,29.75A2.65,2.65,0,0,1,2.67,30.92Z"/><path class="cls-2" d="M19.17.2h0a2.36,2.36,0,0,1,2.45,2.26,2.11,2.11,0,0,1-.33,1.11L4.79,29.71a2.56,2.56,0,0,1-2.13,1.12A2.36,2.36,0,0,1,.21,28.57a2.18,2.18,0,0,1,.33-1.11L17,1.33A2.55,2.55,0,0,1,19.17.2m0-.2a2.75,2.75,0,0,0-2.32,1.22L.35,27.36a2.34,2.34,0,0,0,.82,3.21l.22.11A2.82,2.82,0,0,0,5,29.81L21.48,3.67A2.32,2.32,0,0,0,20.74.46a1.71,1.71,0,0,0-.23-.13h0A2.83,2.83,0,0,0,19.17,0Z"/><path class="cls-2" d="M2.67.2h0A2.54,2.54,0,0,1,4.8,1.33L21.3,27.46a2.14,2.14,0,0,1-.67,2.94l-.23.12a2.67,2.67,0,0,1-1.21.3,2.53,2.53,0,0,1-2.13-1.11L.55,3.57a2.19,2.19,0,0,1,.75-3L1.44.51A2.55,2.55,0,0,1,2.67.2m0-.2A2.89,2.89,0,0,0,1.33.33h0A2.32,2.32,0,0,0,.22,3.42a2,2,0,0,0,.14.25L16.85,29.8a2.82,2.82,0,0,0,3.68.83,2.34,2.34,0,0,0,1-3.14l-.08-.14L5,1.22A2.74,2.74,0,0,0,2.67,0Z"/></g></g><path class="cls-1" d="M50.7,15.92H39.61v8.34h13V28H34.92V1H52.45V4.75H39.61v7.51H50.7Z"/><path class="cls-1" d="M63.18,14.51,67,7.91h5L65.86,17.8,72.2,28h-5l-4-6.86L59.2,28h-5L60.55,17.8,54.42,7.91h5Z"/><path class="cls-1" d="M92.7,18.15a12,12,0,0,1-2.12,7.43,7.35,7.35,0,0,1-10.32,1.2,7.87,7.87,0,0,1-.68-.6V35.7H75.07V7.91h4.16l.18,2a6.58,6.58,0,0,1,5.4-2.41,6.82,6.82,0,0,1,5.76,2.76c1.39,1.82,2.09,4.36,2.09,7.6Zm-4.49-.39A8.32,8.32,0,0,0,87,13a3.89,3.89,0,0,0-3.46-1.73,4.14,4.14,0,0,0-4,2.28v8.91a4.21,4.21,0,0,0,4,2.34,3.89,3.89,0,0,0,3.36-1.74,9.26,9.26,0,0,0,1.26-5.29Z"/><path class="cls-1" d="M105.31,28.35a9.35,9.35,0,0,1-7-2.69,9.8,9.8,0,0,1-2.61-7.19v-.56a12,12,0,0,1,1.16-5.37,8.69,8.69,0,0,1,3.26-3.69,8.57,8.57,0,0,1,4.67-1.31,7.84,7.84,0,0,1,6.34,2.61c1.49,1.75,2.24,4.21,2.24,7.41v1.81H100.25a6,6,0,0,0,1.66,3.94,5,5,0,0,0,3.66,1.45,6.13,6.13,0,0,0,5-2.51L113,24.57a8.12,8.12,0,0,1-3.22,2.79A10.27,10.27,0,0,1,105.31,28.35Zm-.53-17.2a3.78,3.78,0,0,0-3,1.3,6.73,6.73,0,0,0-1.46,3.62h8.59v-.33a5.53,5.53,0,0,0-1.2-3.43A3.75,3.75,0,0,0,104.78,11.15Z"/><path class="cls-1" d="M121.05,7.91l.13,2.32A7.15,7.15,0,0,1,127,7.54q6.27,0,6.39,7.18V28H128.9V15a4.09,4.09,0,0,0-.83-2.83,3.45,3.45,0,0,0-2.7-.92,4.33,4.33,0,0,0-4.06,2.47V28H116.8V7.91Z"/><path class="cls-1" d="M149.25,22.53a2.05,2.05,0,0,0-1-1.84,10.22,10.22,0,0,0-3.3-1.11,17.2,17.2,0,0,1-3.84-1.23q-3.37-1.62-3.37-4.73a5.35,5.35,0,0,1,2.2-4.36,8.63,8.63,0,0,1,5.56-1.74,8.89,8.89,0,0,1,5.82,1.78,5.66,5.66,0,0,1,2.22,4.62H149a2.76,2.76,0,0,0-1-2.16,3.63,3.63,0,0,0-2.56-.87,3.94,3.94,0,0,0-2.42.69,2.16,2.16,0,0,0-.94,1.84A1.83,1.83,0,0,0,143,15a12.07,12.07,0,0,0,3.55,1.23,16.44,16.44,0,0,1,4.16,1.34,5.83,5.83,0,0,1,2.24,1.94,5,5,0,0,1,.76,2.72,5.26,5.26,0,0,1-2.25,4.39,9.62,9.62,0,0,1-5.88,1.67,10.41,10.41,0,0,1-4.4-.89,7.29,7.29,0,0,1-3-2.44,5.8,5.8,0,0,1-1.08-3.36h4.38a3.2,3.2,0,0,0,1.2,2.46,4.84,4.84,0,0,0,3,.86,4.62,4.62,0,0,0,2.71-.68A2.1,2.1,0,0,0,149.25,22.53Z"/><path class="cls-1" d="M169.77,26a7,7,0,0,1-5.64,2.33,6.23,6.23,0,0,1-4.94-1.91,8.12,8.12,0,0,1-1.68-5.53v-13H162v13c0,2.55,1,3.82,3.17,3.82s3.67-.78,4.43-2.36V7.91h4.51V28h-4.25Z"/><path class="cls-1" d="M190,22.53a2.05,2.05,0,0,0-1-1.84,10.46,10.46,0,0,0-3.3-1.11,17.2,17.2,0,0,1-3.84-1.23c-2.25-1.08-3.37-2.66-3.38-4.73a5.34,5.34,0,0,1,2.24-4.36,8.66,8.66,0,0,1,5.57-1.74,8.89,8.89,0,0,1,5.82,1.78,5.65,5.65,0,0,1,2.21,4.62h-4.5a2.76,2.76,0,0,0-1-2.16,3.63,3.63,0,0,0-2.56-.87,3.94,3.94,0,0,0-2.42.69,2.13,2.13,0,0,0-.94,1.84,1.83,1.83,0,0,0,.87,1.61,12.18,12.18,0,0,0,3.52,1.23,16.17,16.17,0,0,1,4.16,1.39,6,6,0,0,1,2.27,1.89,5,5,0,0,1,.73,2.75,5.25,5.25,0,0,1-2.24,4.39,9.62,9.62,0,0,1-5.88,1.67,10.41,10.41,0,0,1-4.4-.89,7.37,7.37,0,0,1-3-2.44,5.81,5.81,0,0,1-1.07-3.36h4.38a3.2,3.2,0,0,0,1.2,2.46,4.77,4.77,0,0,0,3,.86,4.62,4.62,0,0,0,2.71-.68A2.1,2.1,0,0,0,190,22.53Z"/></g></g></g></svg>