<svg xmlns="http://www.w3.org/2000/svg" viewBox="0 0 195.64 34.96"><defs><style>.cls-1{fill:#fff;}</style></defs><title>expensus-logo-white-2</title><g id="Layer_2" data-name="Layer 2"><g id="Layer_1-2" data-name="Layer 1"><g id="Layer_1-2-2" data-name="Layer 1-2"><g id="Layer_1-2-2-2" data-name="Layer 1-2-2"><g id="Layer_1-2-2-2-2" data-name="Layer 1-2-2-2"><path class="cls-1" d="M18.88,30.45a2.61,2.61,0,0,1-2.2-1.15L.44,3.57a2.19,2.19,0,0,1,.69-3A1.71,1.71,0,0,1,1.36.41,2.83,2.83,0,0,1,2.63.1,2.57,2.57,0,0,1,4.82,1.26L21.08,27a2.21,2.21,0,0,1-.71,3l-.21.12A2.72,2.72,0,0,1,18.88,30.45Z"/><path class="cls-1" d="M2.63,30.45a2.42,2.42,0,0,1-2.54-2.3A2.14,2.14,0,0,1,.44,27L16.68,1.26A2.6,2.6,0,0,1,18.88.1,2.43,2.43,0,0,1,21.4,2.41a2.17,2.17,0,0,1-.33,1.16L4.82,29.3A2.58,2.58,0,0,1,2.63,30.45Z"/><path class="cls-1" d="M18.88.2h0a2.32,2.32,0,0,1,2.41,2.22A2,2,0,0,1,21,3.51L4.72,29.25a2.5,2.5,0,0,1-2.1,1.11A2.32,2.32,0,0,1,.21,28.13,2,2,0,0,1,.53,27L16.78,1.31A2.5,2.5,0,0,1,18.88.2m0-.2a2.7,2.7,0,0,0-2.29,1.21L.34,26.94a2.3,2.3,0,0,0,.81,3.16l.22.12a2.78,2.78,0,0,0,3.57-.87L21.16,3.62A2.3,2.3,0,0,0,20.42.45L20.2.33h0A2.78,2.78,0,0,0,18.88,0Z"/><path class="cls-1" d="M2.63.2h0a2.5,2.5,0,0,1,2.1,1.11L21,27a2.1,2.1,0,0,1-.67,2.89.94.94,0,0,1-.22.12,2.51,2.51,0,0,1-1.2.3,2.47,2.47,0,0,1-2.09-1.1L.54,3.51A2.14,2.14,0,0,1,1.28.58L1.42.5A2.55,2.55,0,0,1,2.63.2m0-.2A2.89,2.89,0,0,0,1.31.32h0A2.29,2.29,0,0,0,.22,3.37c0,.08.08.16.13.24L16.6,29.35a2.78,2.78,0,0,0,3.61.82,2.31,2.31,0,0,0,1-3.1l-.08-.14L4.91,1.21A2.66,2.66,0,0,0,2.63,0Z"/></g></g><path class="cls-1" d="M51.47,15.5H40.78v7.23H53.33V27.2H35.21V.2H53.33V4.71H40.78v6.44H51.47Z"/><path class="cls-1" d="M63.88,13.14l3.38-6H73L67.33,17l6,10.24H67.48l-3.58-6.3-3.57,6.3H54.57l6-10.24L54.83,7.15h5.75Z"/><path class="cls-1" d="M93.64,17.37a12.12,12.12,0,0,1-2.1,7.43,6.79,6.79,0,0,1-5.69,2.79,6.26,6.26,0,0,1-4.92-2.09V35H75.57V7.15h5l.19,2a6.29,6.29,0,0,1,5.08-2.33A6.77,6.77,0,0,1,91.58,9.5c1.38,1.83,2.06,4.36,2.06,7.57ZM88.33,17a7.84,7.84,0,0,0-1-4.32,3.24,3.24,0,0,0-2.89-1.52A3.5,3.5,0,0,0,81,13.07v8.22a3.59,3.59,0,0,0,3.51,2C87,23.27,88.33,21.18,88.33,17Z"/><path class="cls-1" d="M106.2,27.59A9.92,9.92,0,0,1,99,24.89a9.63,9.63,0,0,1-2.77-7.22v-.52a12.18,12.18,0,0,1,1.17-5.41,8.58,8.58,0,0,1,3.31-3.67,9.24,9.24,0,0,1,4.89-1.29,8.33,8.33,0,0,1,6.48,2.59c1.58,1.74,2.37,4.19,2.37,7.37v2.19H101.68a5,5,0,0,0,1.56,3.15,4.75,4.75,0,0,0,3.32,1.19A5.8,5.8,0,0,0,111.4,21L114,24a8.13,8.13,0,0,1-3.26,2.66A10.77,10.77,0,0,1,106.2,27.59Zm-.61-16.49A3.34,3.34,0,0,0,103,12.18a5.59,5.59,0,0,0-1.27,3.09h7.46v-.42a4,4,0,0,0-1-2.77A3.45,3.45,0,0,0,105.59,11.1Z"/><path class="cls-1" d="M122.44,7.15l.17,2.32a7,7,0,0,1,5.77-2.69,5.82,5.82,0,0,1,4.75,1.87,8.67,8.67,0,0,1,1.59,5.6v13h-5.39V14.38a3.49,3.49,0,0,0-.74-2.47,3.32,3.32,0,0,0-2.47-.77,3.69,3.69,0,0,0-3.4,1.93V27.22h-5.36V7.15Z"/><path class="cls-1" d="M149.66,21.68a1.74,1.74,0,0,0-1-1.55,10.74,10.74,0,0,0-3.12-1c-4.78-1-7.16-3-7.16-6.09a5.47,5.47,0,0,1,2.21-4.46,8.9,8.9,0,0,1,5.8-1.79,9.6,9.6,0,0,1,6.11,1.8,5.67,5.67,0,0,1,2.3,4.67h-5.37a2.58,2.58,0,0,0-.74-1.9,3.93,3.93,0,0,0-4.41-.14,1.93,1.93,0,0,0-.75,1.56,1.65,1.65,0,0,0,.85,1.44,8.7,8.7,0,0,0,2.85.94,24.62,24.62,0,0,1,3.37.9c2.84,1,4.25,2.84,4.25,5.4a5.24,5.24,0,0,1-2.35,4.45,10.26,10.26,0,0,1-6.09,1.69,10.77,10.77,0,0,1-4.48-.89,7.5,7.5,0,0,1-3.07-2.47,5.83,5.83,0,0,1-1.12-3.39h5.09A2.8,2.8,0,0,0,143.89,23a4.17,4.17,0,0,0,2.63.76,3.9,3.9,0,0,0,2.33-.58A1.82,1.82,0,0,0,149.66,21.68Z"/><path class="cls-1" d="M170.33,25.18a6.76,6.76,0,0,1-5.5,2.41,6.31,6.31,0,0,1-4.92-1.85,8,8,0,0,1-1.74-5.44V7.15h5.37v13c0,2.1,1,3.14,2.85,3.14a3.88,3.88,0,0,0,3.75-1.89V7.15h5.38V27.22h-5Z"/><path class="cls-1" d="M190.46,21.68a1.7,1.7,0,0,0-1-1.55,10.8,10.8,0,0,0-3.13-1c-4.78-1-7.16-3-7.16-6.09a5.54,5.54,0,0,1,2.21-4.46,8.9,8.9,0,0,1,5.8-1.79,9.65,9.65,0,0,1,6.12,1.8,5.69,5.69,0,0,1,2.29,4.67h-5.36a2.59,2.59,0,0,0-.75-1.9,3.12,3.12,0,0,0-2.32-.75,3.18,3.18,0,0,0-2.09.61,1.9,1.9,0,0,0-.74,1.56,1.67,1.67,0,0,0,.84,1.44,8.7,8.7,0,0,0,2.85.94,24.62,24.62,0,0,1,3.37.9c2.84,1,4.25,2.84,4.25,5.4a5.26,5.26,0,0,1-2.31,4.44,10.19,10.19,0,0,1-6.09,1.69,10.93,10.93,0,0,1-4.48-.89,7.63,7.63,0,0,1-3.07-2.47,5.75,5.75,0,0,1-1.11-3.39h5.08A2.8,2.8,0,0,0,184.72,23a4.17,4.17,0,0,0,2.63.76,3.9,3.9,0,0,0,2.33-.58A1.82,1.82,0,0,0,190.46,21.68Z"/></g></g></g></svg>