<svg xmlns="http://www.w3.org/2000/svg" viewBox="0 0 1017.5 611.63"><defs><style>.cls-1{fill:#3f3d56;}.cls-2{fill:#e6e6e6;}.cls-3{fill:#fff;}.cls-4{fill:#f2f2f2;}.cls-5{fill:#407bff;}.cls-6{fill:#a0616a;}.cls-7{fill:#2f2e41;}.cls-8{opacity:0.2;isolation:isolate;}.cls-9{fill:#575a89;}</style></defs><title>expenses-hero</title><g id="Layer_2" data-name="Layer 2"><g id="b07e7c8b-ffb9-458f-9d0a-e368c1cfe139"><rect class="cls-1" x="483.35" y="160.74" width="1.61" height="4.82"/><rect class="cls-2" x="358.33" width="295.99" height="189.57"/><rect class="cls-3" x="366.79" y="26.58" width="279.07" height="154.58"/><rect class="cls-2" x="383.04" y="55.61" width="246.45" height="16.43"/><rect class="cls-2" x="383.23" y="91.03" width="246.45" height="16.43"/><rect class="cls-2" x="383.42" y="126.46" width="246.45" height="16.43"/><rect class="cls-1" x="358.32" y="0.8" width="295.25" height="10.25"/><circle class="cls-4" cx="656.9" cy="340.96" r="116.46"/><path class="cls-1" d="M704.41,611.24c-.19-.3-4.53-7.56-6-22.62C697,574.79,697.88,551.49,710,519c22.9-61.57-5.28-111.26-5.56-111.75l1.39-.81c.07.12,7.34,12.79,11.63,33a143.79,143.79,0,0,1-5.95,80.16c-22.86,61.48-5.87,90.58-5.69,90.86Z"/><circle class="cls-5" cx="695.45" cy="393.17" r="10.44"/><circle class="cls-1" cx="728.38" cy="431.72" r="10.44"/><circle class="cls-5" cx="705.9" cy="457.42" r="10.44"/><circle class="cls-5" cx="733.2" cy="479.11" r="10.44"/><circle class="cls-1" cx="697.86" cy="512.84" r="10.44"/><rect class="cls-1" x="125.03" y="161.06" width="1.61" height="4.82"/><path class="cls-1" d="M126.64,358.63H125V349h1.61Zm0-19.27H125v-9.64h1.61Zm0-19.28H125v-9.64h1.61Zm0-19.27H125v-9.64h1.61Zm0-19.28H125v-9.64h1.61Zm0-19.27H125v-9.64h1.61Zm0-19.28H125v-9.64h1.61Zm0-19.28H125v-9.63h1.61Zm0-19.27H125v-9.64h1.61Zm0-19.28H125v-9.63h1.61Z"/><polygon class="cls-1" points="130.66 373.89 125.03 373.89 125.03 368.27 126.64 368.27 126.64 372.29 130.66 372.29 130.66 373.89"/><path class="cls-1" d="M866.48,373.89H856.8v-1.6h9.68Zm-19.36,0h-9.68v-1.6h9.68Zm-19.37,0h-9.68v-1.6h9.68Zm-19.36,0h-9.68v-1.6h9.68Zm-19.36,0h-9.69v-1.6H789Zm-19.37,0H760v-1.6h9.68Zm-19.36,0h-9.68v-1.6h9.68Zm-19.37,0h-9.68v-1.6h9.68Zm-19.36,0h-9.68v-1.6h9.68Zm-19.36,0h-9.68v-1.6h9.68Zm-19.37,0h-9.68v-1.6h9.68Zm-19.36,0H643.8v-1.6h9.68Zm-19.36,0h-9.69v-1.6h9.69Zm-19.37,0h-9.68v-1.6h9.68Zm-19.36,0h-9.68v-1.6h9.68Zm-19.37,0h-9.68v-1.6H576Zm-19.36,0H547v-1.6h9.68Zm-19.36,0h-9.69v-1.6h9.69Zm-19.37,0h-9.68v-1.6h9.68Zm-19.36,0h-9.68v-1.6h9.68Zm-19.36,0h-9.69v-1.6h9.69Zm-19.37,0h-9.68v-1.6h9.68Zm-19.36,0H430.8v-1.6h9.68Zm-19.37,0h-9.68v-1.6h9.68Zm-19.36,0h-9.68v-1.6h9.68Zm-19.36,0H372.7v-1.6h9.69Zm-19.37,0h-9.68v-1.6H363Zm-19.36,0H334v-1.6h9.68Zm-19.37,0h-9.68v-1.6h9.68Zm-19.36,0h-9.68v-1.6h9.68Zm-19.36,0h-9.68v-1.6h9.68Zm-19.37,0h-9.68v-1.6h9.68Zm-19.36,0h-9.68v-1.6h9.68Zm-19.36,0h-9.69v-1.6h9.69Zm-19.37,0h-9.68v-1.6h9.68Zm-19.36,0h-9.68v-1.6h9.68Zm-19.37,0H159.7v-1.6h9.68Zm-19.36,0h-9.68v-1.6H150Z"/><polygon class="cls-1" points="881.78 373.89 876.16 373.89 876.16 372.29 880.18 372.29 880.18 368.27 881.78 368.27 881.78 373.89"/><path class="cls-1" d="M881.78,358.63h-1.6V349h1.6Zm0-19.27h-1.6v-9.64h1.6Zm0-19.28h-1.6v-9.64h1.6Zm0-19.27h-1.6v-9.64h1.6Zm0-19.28h-1.6v-9.64h1.6Zm0-19.27h-1.6v-9.64h1.6Zm0-19.28h-1.6v-9.64h1.6Zm0-19.28h-1.6v-9.63h1.6Zm0-19.27h-1.6v-9.64h1.6Zm0-19.28h-1.6v-9.63h1.6Z"/><rect class="cls-1" x="880.18" y="161.06" width="1.61" height="4.82"/><rect class="cls-1" x="370.98" y="324.9" width="274.68" height="285.92"/><rect class="cls-3" x="391.86" y="362.25" width="49.8" height="35.34"/><rect class="cls-3" x="487.44" y="362.25" width="137.34" height="4.02"/><rect class="cls-3" x="487.44" y="378.31" width="137.34" height="4.02"/><rect class="cls-3" x="487.44" y="394.37" width="137.34" height="4.02"/><rect class="cls-3" x="391.86" y="489.55" width="49.8" height="35.34"/><rect class="cls-3" x="487.44" y="489.55" width="137.34" height="4.02"/><rect class="cls-3" x="487.44" y="505.61" width="137.34" height="4.02"/><rect class="cls-3" x="487.44" y="521.67" width="137.34" height="4.02"/><polygon class="cls-5" points="416.97 388.86 399.93 366.13 403.96 363.1 417.85 381.62 453.24 352.95 456.44 356.86 416.97 388.86"/><polygon class="cls-5" points="416.97 514.95 399.93 492.22 403.96 489.2 417.85 507.71 453.24 479.04 456.44 482.95 416.97 514.95"/><rect class="cls-1" x="5.55" y="610.02" width="991.89" height="1.61"/><path class="cls-1" d="M542.89,169.89s26.51-11.55,39,.65S548.52,178.73,542.89,169.89Z"/><path class="cls-6" d="M601.12,388s-11.24,20.88-18.47,20.88-6.43,13.65-4.82,16.87,5.62,10.44-.8,20.88c-2.25,3.65-1.84,7.78-.37,11.62,4.12,10.76,20.18,7.5,19.66-4,0-.13,0-.25,0-.38-.8-12.85,5.63-32.93,12.05-37.75s12-17.67,12-17.67Z"/><path class="cls-6" d="M524,383.13S535.26,404,542.49,404s6.43,13.66,4.82,16.87-5.62,10.44.8,20.88c2.25,3.65,1.85,7.78.37,11.62-4.12,10.76-20.17,7.5-19.66-4,0-.13,0-.25,0-.38.8-12.85-5.62-32.93-12.05-37.75s-12-17.67-12-17.67Z"/><path class="cls-7" d="M532.85,280.33,528,290.77s-70.68,23.29-64.26,50.6,37.75,69.87,42.57,68.26,30.52-6.42,31.32-20.08-18.47-37.74-18.47-37.74l26.51-24.1,38.56-.8,32.92,24.9s-34.54,30.52-19.28,42.56,37.75,20.08,41,15.26,39.35-76.3,33.73-82.72S610,296.39,610,296.39L594.7,274.7l-59.44-3.21Z"/><path class="cls-8" d="M527.63,206.84l18.08,70.67S537.27,215.67,527.63,206.84Z"/><path class="cls-8" d="M597.92,196.91l-18.27,92.4S585.49,202.24,597.92,196.91Z"/><rect class="cls-2" x="0.01" y="0.32" width="295.99" height="189.57"/><rect class="cls-3" x="8.48" y="26.9" width="279.07" height="154.58"/><rect class="cls-2" x="24.72" y="55.93" width="246.45" height="16.43"/><rect class="cls-2" x="24.91" y="91.35" width="246.45" height="16.43"/><rect class="cls-2" x="25.11" y="126.78" width="246.45" height="16.43"/><path class="cls-6" d="M584.37,307.25,580,316s-17.47,30.58-2.91,30.58,17.47-26.21,17.47-26.21l1.46-8.74Z"/><path class="cls-6" d="M577.51,155.45s1.45,24.75,5.82,29.12-36.4,0-36.4,0,1.45-27.66,0-29.12S577.51,155.45,577.51,155.45Z"/><circle class="cls-6" cx="561.49" cy="142.35" r="24.75"/><path class="cls-6" d="M545.14,306.16l4.37,8.74s17.48,30.58,2.92,30.58S535,319.27,535,319.27l-1.45-8.74Z"/><path class="cls-7" d="M574.25,130.46s3,6.46-9,3.88c0,0-4.48,2.58-4.48-1.3,0,0-6,6.47-7.48,2.59s-4.48,1.29-4.48,1.29l-3-6.46-3,3.88H532.4s-3-25.88,32.88-23.29,18.22,43.58,18.22,43.58-.29-7.36-3.28-3.48S574.25,130.46,574.25,130.46Z"/><rect class="cls-1" y="1.12" width="295.25" height="10.25"/><rect class="cls-2" x="721.26" y="0.32" width="295.99" height="189.57"/><rect class="cls-3" x="729.73" y="26.9" width="279.07" height="154.58"/><rect class="cls-2" x="745.98" y="55.93" width="246.45" height="16.43"/><rect class="cls-2" x="746.17" y="91.35" width="246.45" height="16.43"/><rect class="cls-2" x="746.36" y="126.78" width="246.45" height="16.43"/><rect class="cls-1" x="722.25" y="1.12" width="295.25" height="10.25"/><path class="cls-5" d="M601.12,180.74s20.08,0,19.28,8-27.31,146.17-27.31,146.17-11.24-10.44-20.88-8Z"/><path class="cls-5" d="M523.22,183.15s-20.08,4-20.08,16.06,28.91,127.7,32.93,127.7,19.27-2.41,19.27-6.43S523.22,183.15,523.22,183.15Z"/><path class="cls-9" d="M541.69,170.3s8.83,9.63,10.44,11.24S561,192,576.22,179.13s16.87,2.41,16.87,2.41v96.38s-12.85-5.62-23.29,0-32.13-1.61-32.13-1.61l-4-99.59Z"/><path class="cls-5" d="M579.45,170.3s16.85,1.6,17.66,3.21,25.3,8.43,23.69,15.66-23.69,71.88-14.06,83.93,25.71,28.91,20.08,30.52-15.26-2.41-24.89,0S569.8,286,572.21,264.26,572.23,175.92,579.45,170.3Z"/><path class="cls-5" d="M547.59,170.3s-7.51-3.22-13.93,0-28.92,19.27-27.31,26.5,22.49,57.83,8,81.92-16.86,30.52-16.86,30.52l35.33-18.47s27.31-16.87,24.9-27.31S547.59,170.3,547.59,170.3Z"/></g></g></svg>