<svg xmlns="http://www.w3.org/2000/svg" viewBox="0 0 262.81 330.5"><defs><style>.cls-1{fill:#407bff;}.cls-2{fill:#9fbdff;}.cls-3{fill:#fff;}</style></defs><title>user-avatar</title><g id="Layer_2" data-name="Layer 2"><g id="Layer_1-2" data-name="Layer 1"><path class="cls-1" d="M262.81,269.44v36.32a24.77,24.77,0,0,1-24.74,24.74H24.74A24.77,24.77,0,0,1,0,305.76V269.44a55.68,55.68,0,0,1,53.81-55.58c.29,0,31,1.49,40-31.41-18-13.79-31.2-37.28-35.14-65.4-2.09-2.88-4.64-10.82-5.7-15-10.53-41.29,9.07-83,43.68-93a56.15,56.15,0,0,1,10.49-2A69.78,69.78,0,0,1,137.79,0C179.1,0,212.7,36.11,212.7,80.5a84.94,84.94,0,0,1-6.6,33.09,11.12,11.12,0,0,1-1.79,2.93c-2.53,18.65-9.2,35.9-19.42,49.75A80.66,80.66,0,0,1,169,182.56c8.84,32.36,39.71,31.27,40,31.29A55.7,55.7,0,0,1,262.81,269.44Zm-22.74,36.32V269.44a32.93,32.93,0,0,0-32.88-32.9,60.74,60.74,0,0,1-22-4.36,79.75,79.75,0,0,1-107.49,0,71.76,71.76,0,0,1-22.08,4.38,32.93,32.93,0,0,0-32.89,32.9v36.32a2,2,0,0,0,2,2H238.07A2,2,0,0,0,240.07,305.76ZM170.21,69.87a36.65,36.65,0,0,1,19.55,5.63c-2.3-29.51-24.72-52.76-52-52.76a47.66,47.66,0,0,0-22.29,5.6,11.08,11.08,0,0,1-4.76,1.3A34,34,0,0,0,103,30.89c-20.75,6-33,30.62-29.58,57.1a65.86,65.86,0,0,0,11.1-22.92,13.07,13.07,0,0,1,24.78-1.62,10.26,10.26,0,0,0,9.51,6.42Zm12.51,30.36a14.11,14.11,0,0,0-12.51-7.63H118.78a32.74,32.74,0,0,1-18.3-5.53,89.43,89.43,0,0,1-19.37,26.19c4.57,33.9,26,59.73,50.34,59.73a38.93,38.93,0,0,0,20.42-6.09C169.88,155.67,182.53,130.05,182.72,100.23ZM165,219.34a63,63,0,0,1-16.59-26.12,59.35,59.35,0,0,1-17,2.5,58.52,58.52,0,0,1-17-2.54A62.84,62.84,0,0,1,97.85,219.3a57,57,0,0,0,67.15,0Z"/><path class="cls-2" d="M240.07,269.44v36.32a2,2,0,0,1-2,2H24.74a2,2,0,0,1-2-2V269.44a32.93,32.93,0,0,1,32.89-32.9,71.71,71.71,0,0,0,22.08-4.38,79.75,79.75,0,0,0,107.49,0,60.74,60.74,0,0,0,22,4.36A32.93,32.93,0,0,1,240.07,269.44Z"/><path class="cls-2" d="M189.76,75.5a36.65,36.65,0,0,0-19.55-5.63H118.78a10.26,10.26,0,0,1-9.51-6.42,13.07,13.07,0,0,0-24.78,1.62A65.86,65.86,0,0,1,73.39,88C70,61.51,82.22,36.89,103,30.89a34,34,0,0,1,7.77-1.25,11.08,11.08,0,0,0,4.76-1.3,47.7,47.7,0,0,1,22.29-5.61C165,22.74,187.46,46,189.76,75.5Z"/><path class="cls-3" d="M170.21,92.6a14.11,14.11,0,0,1,12.51,7.63c-.19,29.82-12.84,55.44-30.85,66.67A38.93,38.93,0,0,1,131.45,173c-24.35,0-45.77-25.83-50.34-59.73a89.56,89.56,0,0,0,19.37-26.19,32.74,32.74,0,0,0,18.3,5.53Z"/><path class="cls-3" d="M148.41,193.22A63,63,0,0,0,165,219.34a57,57,0,0,1-67.15,0,62.94,62.94,0,0,0,16.57-26.12,58.52,58.52,0,0,0,17,2.54A59.4,59.4,0,0,0,148.41,193.22Z"/></g></g></svg>